# xmcd
#
# Track frame offsets:
#	150
#	12984
#	27440
#	40095
#	53520
#	65995
#	78917
#	90927
#	103329
#	116118
#	128610
#	145216
#	157677
#	171387
#	183177
#	194960
#	209605
#	222157
#	235837
#	248334
#
# Disc length: 3462 seconds
#
# Revision: 1
# Processed by: cddbd v1.5.2PL0 Copyright (c) Steve Scherf et al.
# Submitted via: audiograbber 1.83.01
#
DISCID=150d8414
DTITLE=Various Artist - I've got a thing about trains
DYEAR=2001
DGENRE=Country
TTITLE0=Hank Snow - I'm movin' on
TTITLE1=Jimmie Rodgers - The brakeman's blues
TTITLE2=Ernest Tubb - Waitin' for a train
TTITLE3=Carter Family - Wabash cannonball
TTITLE4=Hank Williams - Pan American
TTITLE5=Roy Acuff - Night train to Memphis
TTITLE6=Gene Autry - Dixie Cannonball
TTITLE7=Roy Rogers - One more ride
TTITLE8=Jimmie Davis - Doggone that train
TTITLE9=Delmore Brothers - Freight train boogie
TTITLE10=Monroe Brothers - The New River train
TTITLE11=Pee Wee king - Tenessee Central number 9
TTITLE12=Frank Hutchison - The train that carried the girl from town
TTITLE13=Sheb Woolley - Freight train cinders in my eyes
TTITLE14=Mac O'Dell and his Alabama Jubileers - Red ball rocket train
TTITLE15=Vernon Delhart - The runaway train
TTITLE16=Hank Snow - The golden rocket
TTITLE17=Jimmie Rodgers - Train whistle blues
TTITLE18=Roy Acuff - Freight train blues
TTITLE19=Bill Monroe - Orange blossom special
EXTD=
EXTT0=
EXTT1=
EXTT2=
EXTT3=
EXTT4=
EXTT5=
EXTT6=
EXTT7=
EXTT8=
EXTT9=
EXTT10=
EXTT11=
EXTT12=
EXTT13=
EXTT14=
EXTT15=
EXTT16=
EXTT17=
EXTT18=
EXTT19=
PLAYORDER=
